<?xml version="1.0" encoding="UTF-8" standalone="no"?>
<svg
   xmlns:dc="http://purl.org/dc/elements/1.1/"
   xmlns:cc="http://creativecommons.org/ns#"
   xmlns:rdf="http://www.w3.org/1999/02/22-rdf-syntax-ns#"
   xmlns:svg="http://www.w3.org/2000/svg"
   xmlns="http://www.w3.org/2000/svg"
   xmlns:sodipodi="http://sodipodi.sourceforge.net/DTD/sodipodi-0.dtd"
   xmlns:inkscape="http://www.inkscape.org/namespaces/inkscape"
   height="512pt"
   viewBox="-1 0 512 512"
   width="512pt"
   version="1.1"
   id="svg14"
   sodipodi:docname="whatsapp.svg"
   inkscape:version="1.0 (4035a4fb49, 2020-05-01)">
  <metadata
     id="metadata20">
    <rdf:RDF>
      <cc:Work
         rdf:about="">
        <dc:format>image/svg+xml</dc:format>
        <dc:type
           rdf:resource="http://purl.org/dc/dcmitype/StillImage" />
      </cc:Work>
    </rdf:RDF>
  </metadata>
  <defs
     id="defs18" />
  <sodipodi:namedview
     inkscape:document-rotation="0"
     pagecolor="#ffffff"
     bordercolor="#666666"
     borderopacity="1"
     objecttolerance="10"
     gridtolerance="10"
     guidetolerance="10"
     inkscape:pageopacity="0"
     inkscape:pageshadow="2"
     inkscape:window-width="1302"
     inkscape:window-height="745"
     id="namedview16"
     showgrid="false"
     inkscape:zoom="0.34595752"
     inkscape:cx="-68.281852"
     inkscape:cy="541.39783"
     inkscape:window-x="1496"
     inkscape:window-y="-8"
     inkscape:window-maximized="1"
     inkscape:current-layer="g12" />
  <path
     d="m -66.142818,588.77209 c -2.875,0 -5.671875,-1.13672 -7.746093,-3.23437 -2.734376,-2.76563 -3.789063,-6.78125 -2.761719,-10.53516 L -43.365474,453.45568 C -64.08813,415.98303 -75.013911,373.5924 -74.998287,330.56115 -74.939693,190.61975 38.94312,76.772087 178.87281,76.772087 c 67.87109,0.02734 131.64453,26.464843 179.57812,74.433593 47.92578,47.97266 74.3086,111.74219 74.28906,179.5586 -0.0625,139.94531 -113.94531,253.80078 -253.86718,253.80078 0,0 -0.10547,0 -0.10938,0 -40.87109,-0.0156 -81.390623,-9.97656 -117.468748,-28.84375 l -124.675781,32.69531 c -0.914062,0.23828 -1.84375,0.35547 -2.761719,0.35547 z m 0,0"
     fill="#e5e5e5"
     id="path2"
     inkscape:export-xdpi="72"
     inkscape:export-ydpi="72" />
  <path
     d="m -66.142693,577.87756 34.46875,-125.87109 C -52.935662,415.16662 -64.119255,373.37756 -64.10363,330.56506 -64.048943,196.63146 44.943245,87.666617 178.87293,87.666617 c 64.99219,0.02734 125.9961,25.324223 171.8711,71.238283 45.87109,45.91407 71.125,106.94532 71.10156,171.85547 -0.0586,133.92969 -109.06641,242.91016 -242.97266,242.91016 -0.008,0 0.004,0 0,0 h -0.10547 C 138.1034,573.6549 98.150276,563.45568 62.661995,544.10022 Z m 134.769531,-77.75 7.378907,4.37109 c 31.000005,18.39844 66.542965,28.12891 102.789065,28.14844 h 0.0781 c 111.30469,0 201.89844,-90.57812 201.94532,-201.90234 0.0195,-53.94922 -20.96483,-104.67969 -59.09373,-142.83985 -38.13282,-38.16016 -88.83204,-59.1875 -142.77735,-59.21094 -111.39453,0 -201.984374,90.56641 -202.027343,201.88672 -0.01563,38.14844 10.65625,75.29688 30.875,107.44532 l 4.804688,7.64062 -20.40625,74.5 z m 0,0"
     fill="#ffffff"
     id="path4"
     inkscape:export-xdpi="72"
     inkscape:export-ydpi="72" />
  <path
     d="m -57.691522,569.39318 33.277344,-121.51953 c -20.53125,-35.5625 -31.324219,-75.91016 -31.3125,-117.23438 C -55.675898,201.3424 49.546759,96.150993 178.83192,96.150993 c 62.75,0.02734 121.64453,24.449217 165.92187,68.773437 44.28906,44.32422 68.66406,103.24219 68.64063,165.89844 -0.0547,129.30078 -105.28125,234.5039 -234.55079,234.5039 -0.0117,0 0.004,0 0,0 h -0.10546 c -39.25391,-0.0156 -77.82813,-9.86718 -112.085942,-28.53906 z m 0,0"
     fill="#64b161"
     id="path6"
     inkscape:export-xdpi="72"
     inkscape:export-ydpi="72" />
  <g
     fill="#fff"
     id="g12">
    <rect
       style="opacity:1;fill:#64b161;fill-opacity:1;stroke:#64b161;stroke-width:14.5296;stroke-miterlimit:4;stroke-dasharray:none;stroke-opacity:1"
       id="rect845"
       width="666.55011"
       height="666.55011"
       x="-155.4236"
       y="-0.50296825"
       inkscape:export-xdpi="72"
       inkscape:export-ydpi="72" />
    <path
       d="m -66.142693,577.87756 34.46875,-125.87109 C -52.935662,415.16662 -64.119255,373.37756 -64.10363,330.56506 -64.048943,196.63146 44.943245,87.666617 178.87293,87.666617 c 64.99219,0.02734 125.9961,25.324223 171.8711,71.238283 45.87109,45.91407 71.125,106.94532 71.10156,171.85547 -0.0586,133.92969 -109.06641,242.91016 -242.97266,242.91016 -0.008,0 0.004,0 0,0 h -0.10547 C 138.1034,573.6549 98.150276,563.45568 62.661995,544.10022 Z m 134.769531,-77.75 7.378907,4.37109 c 31.000005,18.39844 66.542965,28.12891 102.789065,28.14844 h 0.0781 c 111.30469,0 201.89844,-90.57812 201.94532,-201.90234 0.0195,-53.94922 -20.96483,-104.67969 -59.09373,-142.83985 -38.13282,-38.16016 -88.83204,-59.1875 -142.77735,-59.21094 -111.39453,0 -201.984374,90.56641 -202.027343,201.88672 -0.01563,38.14844 10.65625,75.29688 30.875,107.44532 l 4.804688,7.64062 -20.40625,74.5 z m 0,0"
       id="path8"
       inkscape:export-xdpi="72"
       inkscape:export-ydpi="72" />
    <path
       d="m 117.21074,228.97822 c -4.54687,-10.10937 -9.33594,-10.3125 -13.66406,-10.48828 -3.53906,-0.15234 -7.589846,-0.14453 -11.632815,-0.14453 -4.046875,0 -10.625,1.52344 -16.1875,7.59766 -5.566407,6.07422 -21.253907,20.76172 -21.253907,50.63281 0,29.875 21.757813,58.73828 24.792969,62.79297 3.035157,4.05078 42.000003,67.30859 103.707033,91.64453 51.28516,20.22656 61.71875,16.20313 72.85156,15.19141 11.13281,-1.01172 35.91797,-14.6875 40.97656,-28.86328 5.0625,-14.17579 5.0625,-26.32422 3.54297,-28.86719 -1.51953,-2.52735 -5.5664,-4.04688 -11.63672,-7.08203 -6.07031,-3.03516 -35.91796,-17.72657 -41.48437,-19.75 -5.56641,-2.02735 -9.61328,-3.03516 -13.66016,3.04297 -4.05078,6.07031 -15.67578,19.74218 -19.21875,23.78906 -3.54297,4.05859 -7.08593,4.5664 -13.15625,1.52734 -6.07031,-3.04297 -25.625,-9.44922 -48.82031,-30.13281 -18.04687,-16.08984 -30.23437,-35.96485 -33.77734,-42.04297 -3.53907,-6.07031 -0.0586,-9.07031 2.66797,-12.38672 4.91015,-5.97266 13.14843,-16.71094 15.17187,-20.75781 2.02344,-4.05469 1.01172,-7.59766 -0.50391,-10.63672 -1.51953,-3.03516 -13.32031,-33.05859 -18.71484,-45.06641 z m 0,0"
       fill-rule="evenodd"
       id="path10"
       style="fill:#000000;fill-opacity:0;stroke:#ffffff;stroke-width:11.1997;stroke-miterlimit:4;stroke-dasharray:none"
       inkscape:export-xdpi="72"
       inkscape:export-ydpi="72" />
  </g>
</svg>
