<?xml version="1.0" standalone="no"?>
<!DOCTYPE svg PUBLIC "-//W3C//DTD SVG 20010904//EN"
 "http://www.w3.org/TR/2001/REC-SVG-20010904/DTD/svg10.dtd">
<svg version="1.0" xmlns="http://www.w3.org/2000/svg"
 width="1280.000000pt" height="1280.000000pt" viewBox="0 0 1280.000000 1280.000000"
 preserveAspectRatio="xMidYMid meet">
<metadata>
Created by potrace 1.11, written by Peter Selinger 2001-2013
</metadata>
<g transform="translate(0.000000,1280.000000) scale(0.100000,-0.100000)"
fill="#000000" stroke="none">
<path d="M4065 7883 c-225 -37 -371 -192 -379 -402 -8 -195 100 -350 289 -416
61 -21 178 -26 261 -10 65 12 158 52 209 90 l31 23 -1 175 c0 96 -3 178 -7
182 -5 6 -140 8 -334 5 l-31 0 0 -72 c-1 -40 3 -78 7 -83 5 -6 40 -9 78 -8 66
2 70 1 74 -21 3 -13 3 -37 0 -54 -3 -24 -11 -31 -45 -42 -195 -59 -350 103
-286 297 24 72 100 129 184 137 43 4 124 -22 164 -51 l33 -26 27 29 c14 16 45
52 69 80 l42 52 -55 36 c-61 41 -113 62 -177 71 -58 8 -128 12 -153 8z"/>
<path d="M7994 7874 c-196 -44 -328 -198 -338 -391 -15 -280 242 -488 529
-428 86 18 159 57 220 119 153 153 159 400 13 572 -86 101 -282 160 -424 128z
m193 -217 c65 -34 112 -125 107 -209 -13 -220 -289 -276 -389 -79 -11 21 -17
58 -18 95 0 91 40 159 118 199 38 20 139 16 182 -6z"/>
<path d="M6445 7866 c-127 -40 -195 -127 -195 -249 0 -66 32 -131 81 -167 36
-25 121 -57 261 -95 76 -21 103 -44 95 -77 -17 -68 -181 -56 -307 21 -43 27
-48 28 -61 13 -8 -10 -36 -43 -62 -76 l-47 -58 38 -28 c100 -72 207 -104 352
-103 182 2 302 95 314 244 9 120 -54 198 -196 242 -241 74 -232 70 -239 99
-19 74 112 83 244 17 33 -16 60 -29 62 -29 1 0 26 34 55 75 60 88 60 88 -33
133 -102 50 -268 67 -362 38z"/>
<path d="M7133 7861 c-129 -44 -190 -133 -181 -262 9 -118 78 -174 281 -228
143 -38 178 -63 149 -108 -33 -53 -217 -28 -313 42 l-34 26 -20 -24 c-11 -14
-39 -47 -63 -75 l-42 -50 31 -26 c100 -84 276 -126 432 -102 156 24 251 132
241 274 -8 121 -78 178 -283 231 -129 34 -147 43 -153 75 -14 72 114 80 243
16 34 -17 65 -27 69 -23 4 4 29 39 55 76 53 76 53 77 -20 117 -68 38 -126 52
-235 55 -82 3 -116 0 -157 -14z"/>
<path d="M4550 7465 l0 -405 309 0 310 0 0 94 c0 81 -2 95 -17 99 -9 3 -89 4
-177 3 -88 -1 -169 1 -180 5 -19 6 -19 16 -20 305 l0 299 -112 2 -113 3 0
-405z"/>
<path d="M5226 7863 c-3 -4 -6 -186 -6 -405 l0 -398 329 0 329 0 1 95 2 95
-219 0 -219 0 2 58 c2 31 3 60 4 64 0 4 54 7 119 7 64 -1 151 0 192 0 l75 1
-3 88 -3 87 -189 0 c-121 0 -191 3 -193 10 -2 5 -3 33 -3 60 l2 50 208 0 c241
1 221 -9 220 112 l0 78 -321 2 c-176 1 -323 -1 -327 -4z"/>
<path d="M5948 7848 c-2 -13 -3 -194 -3 -403 l0 -380 113 -3 112 -3 0 36 c0
19 0 181 0 360 0 179 0 344 0 368 l0 44 -109 2 c-106 2 -109 1 -113 -21z"/>
<path d="M8590 7464 l0 -404 109 0 c78 0 110 4 113 13 2 6 3 103 3 215 -1 111
1 202 4 202 3 -1 51 -59 106 -131 123 -160 134 -174 163 -208 12 -14 32 -41
45 -58 l22 -33 100 0 101 0 0 405 0 406 -112 -2 -111 -1 1 -188 c1 -104 -1
-199 -4 -211 -5 -20 -8 -19 -32 17 -15 21 -87 116 -161 209 l-134 170 -106 2
-107 2 0 -405z"/>
<path d="M2830 6836 c-11 -30 -148 -355 -165 -391 -7 -16 -24 -57 -38 -90 -13
-33 -75 -179 -137 -325 -62 -146 -116 -275 -121 -287 l-9 -23 164 0 164 0 37
93 c20 50 40 95 44 99 6 7 182 11 371 9 l65 -1 34 -88 c19 -48 38 -93 44 -99
7 -10 54 -13 173 -13 90 0 164 1 164 3 0 1 -15 38 -34 82 -19 44 -102 242
-185 440 -84 198 -156 369 -161 380 -5 11 -30 67 -54 125 l-44 105 -152 1
c-145 0 -152 -1 -160 -20z m180 -402 c0 -6 22 -66 50 -134 27 -68 47 -126 44
-129 -3 -3 -57 -6 -120 -6 -81 -1 -114 3 -114 11 0 10 17 57 40 109 4 11 23
59 41 106 29 75 35 85 46 70 7 -9 13 -21 13 -27z"/>
<path d="M7486 6825 c-272 -648 -410 -972 -417 -980 -5 -5 -9 -16 -9 -25 0 -9
-6 -24 -13 -34 -12 -16 -17 -11 -59 51 -25 37 -78 115 -117 172 l-71 104 42
22 c61 32 123 98 155 163 25 52 28 66 27 167 0 90 -4 119 -22 157 -28 64 -95
134 -157 165 -104 53 -161 60 -501 62 l-314 2 0 -565 0 -566 155 0 155 0 1 28
c0 15 1 91 1 170 l0 142 69 0 69 0 112 -170 113 -170 321 0 321 0 26 63 c14
34 33 79 41 100 14 34 18 37 55 37 60 1 347 1 374 0 19 0 28 -15 62 -100 l40
-100 168 0 c131 0 168 3 164 13 -28 68 -471 1113 -474 1117 -3 3 -72 5 -155 5
l-150 1 -12 -31z m-839 -268 c95 -50 88 -194 -12 -232 -37 -15 -172 -22 -276
-16 -15 1 -16 17 -14 134 1 72 3 133 4 133 0 1 61 1 134 0 102 -2 139 -6 164
-19z m1063 -232 c33 -82 57 -151 54 -154 -7 -7 -244 -8 -244 -1 0 3 4 10 8 16
5 5 33 73 63 151 30 78 55 140 57 139 1 -2 29 -70 62 -151z"/>
<path d="M3660 6285 l0 -565 155 0 155 0 2 305 3 305 145 -186 c80 -102 187
-240 238 -305 l94 -120 136 3 137 3 0 563 0 562 -155 -2 -155 -3 0 -292 c0
-249 -2 -290 -14 -279 -7 8 -111 140 -230 293 l-217 278 -147 3 -147 3 0 -566z"/>
<path d="M4860 6284 l0 -566 293 5 c314 5 351 10 467 65 137 65 231 168 281
308 31 86 36 256 9 351 -55 200 -210 336 -435 382 -72 15 -142 19 -352 20
l-263 2 0 -567z m565 265 c125 -42 192 -146 182 -286 -6 -80 -25 -127 -71
-177 -65 -70 -155 -93 -332 -87 l-32 1 0 285 1 285 93 0 c69 0 111 -6 159 -21z"/>
<path d="M8320 6800 c0 -27 -1 -203 -1 -390 0 -187 1 -419 1 -515 l0 -176 259
1 c211 1 276 5 350 20 213 44 369 172 433 357 33 97 33 288 -1 383 -27 76 -74
151 -128 201 -42 40 -126 99 -141 99 -5 0 -23 7 -41 16 -76 38 -196 51 -468
53 l-263 2 0 -51z m550 -246 c30 -9 69 -26 87 -39 145 -98 151 -351 11 -454
-68 -50 -167 -70 -315 -62 l-22 1 1 285 1 285 92 0 c55 0 113 -6 145 -16z"/>
<path d="M9490 6285 l0 -565 457 2 458 3 0 130 0 130 -300 1 -300 0 -3 90 -3
89 268 0 268 0 3 123 3 122 -271 0 -270 0 0 85 0 85 158 0 c86 1 220 2 297 3
l140 2 1 133 1 132 -454 0 -453 0 0 -565z"/>
<path d="M2330 5520 c0 -20 7 -20 4085 -20 4078 0 4085 0 4085 20 0 20 -7 20
-4085 20 -4078 0 -4085 0 -4085 -20z"/>
<path d="M2330 5255 l0 -115 4080 0 4080 0 0 115 0 115 -4080 0 -4080 0 0
-115z"/>
<path d="M2330 4980 c0 -20 7 -20 4085 -20 4078 0 4085 0 4085 20 0 20 -7 20
-4085 20 -4078 0 -4085 0 -4085 -20z"/>
<path d="M3223 4857 c-37 -25 -54 -54 -26 -42 10 4 23 8 28 9 35 6 73 29 68
42 -7 20 -33 16 -70 -9z"/>
<path d="M2350 4751 c0 -5 9 -11 20 -14 19 -5 20 -14 20 -162 0 -148 -1 -157
-20 -162 -11 -3 -20 -9 -20 -14 0 -12 137 -11 145 1 3 6 -5 10 -19 10 -28 0
-33 13 -34 83 l-1 47 67 2 c37 0 72 2 77 3 6 2 16 3 23 4 7 0 24 12 37 26 19
18 25 35 25 70 0 35 -6 52 -25 70 -13 14 -30 25 -37 26 -7 0 -22 2 -33 4 -46
9 -225 13 -225 6z m240 -41 c21 -16 25 -27 24 -66 -1 -65 -25 -84 -108 -84
l-63 0 0 85 0 85 61 0 c45 0 68 -6 86 -20z"/>
<path d="M2690 4751 c0 -5 9 -13 20 -16 19 -6 20 -15 20 -162 0 -146 -1 -155
-20 -160 -44 -12 -16 -23 57 -23 46 0 73 4 67 9 -5 5 -18 11 -29 13 -18 3 -20
12 -22 81 l-1 77 57 0 c79 0 92 -12 98 -91 5 -68 19 -89 58 -89 12 0 26 5 33
12 14 14 16 62 2 53 -5 -3 -10 -15 -10 -26 0 -10 -7 -19 -15 -19 -13 0 -18 26
-15 95 1 15 -32 65 -43 65 -6 0 3 12 21 26 59 47 36 136 -40 148 -67 11 -238
16 -238 7z m240 -41 c27 -27 24 -86 -4 -106 -12 -8 -45 -14 -82 -14 l-62 0 0
70 0 70 64 0 c51 0 68 -4 84 -20z"/>
<path d="M3060 4751 c0 -5 9 -11 20 -14 16 -4 19 -15 22 -78 2 -41 2 -112 0
-158 -3 -72 -6 -84 -23 -88 -10 -3 -19 -9 -19 -14 0 -5 70 -9 155 -9 117 0
155 3 156 13 0 6 2 38 5 70 6 62 -9 80 -20 23 -4 -19 -18 -46 -33 -60 -23 -23
-33 -26 -100 -26 l-74 0 2 80 2 81 46 -3 c43 -3 47 -5 58 -38 14 -45 23 -26
27 63 3 68 -8 89 -20 40 -9 -36 -20 -43 -71 -43 l-43 0 1 75 1 75 77 0 c82 0
109 -13 115 -56 2 -10 8 -20 14 -22 8 -2 12 13 12 47 l0 51 -155 0 c-85 0
-155 -4 -155 -9z"/>
<path d="M3675 4747 c-78 -30 -115 -88 -115 -179 0 -115 63 -180 179 -184 91
-4 144 27 165 94 11 35 -9 26 -37 -17 -48 -73 -158 -81 -215 -16 -60 67 -48
215 20 269 62 48 163 21 199 -54 12 -25 18 -30 24 -19 5 7 9 24 8 36 -1 13 -1
37 -2 53 -1 31 -31 45 -31 15 0 -18 -8 -18 -40 0 -30 17 -113 18 -155 2z"/>
<path d="M4047 4687 c-16 -39 -43 -108 -61 -152 -18 -44 -36 -88 -40 -98 -3
-11 -15 -21 -26 -24 -41 -11 -18 -23 45 -23 37 0 65 4 65 10 0 6 -10 10 -23
10 -33 0 -36 6 -24 46 l10 34 88 0 87 0 11 -31 c16 -46 14 -49 -19 -49 -16 0
-30 -4 -30 -10 0 -6 33 -10 80 -10 74 0 105 11 62 22 -12 3 -35 51 -75 154
-74 190 -76 194 -101 194 -17 0 -27 -15 -49 -73z m67 -74 c16 -43 31 -84 34
-90 3 -10 -15 -13 -68 -13 -65 0 -71 2 -65 18 5 9 20 50 33 90 14 39 28 72 32
72 3 0 18 -35 34 -77z"/>
<path d="M4320 4751 c0 -5 9 -11 20 -14 19 -5 20 -14 20 -162 0 -148 -1 -157
-20 -162 -11 -3 -20 -9 -20 -14 0 -12 107 -11 115 1 3 6 -3 10 -15 10 -11 0
-23 6 -26 13 -2 7 -3 74 -2 148 l3 134 60 -89 c33 -48 67 -99 75 -111 8 -13
29 -44 45 -69 25 -39 35 -46 62 -46 l33 0 2 173 3 172 40 0 40 0 5 -55 c3 -30
4 -102 2 -159 -3 -92 -5 -104 -23 -108 -10 -3 -19 -10 -19 -15 0 -7 49 -9 134
-6 126 3 135 5 168 30 62 47 84 197 40 273 -32 54 -57 60 -269 63 -121 1 -194
-2 -198 -8 -3 -5 3 -10 15 -10 11 0 23 -6 26 -13 2 -7 3 -75 2 -151 l-3 -138
-105 160 -105 161 -52 0 c-29 1 -53 -3 -53 -8z m677 -44 c24 -24 28 -36 31
-103 5 -93 -16 -157 -58 -179 -17 -9 -56 -15 -95 -15 l-65 0 0 166 0 166 80
-4 c71 -3 83 -6 107 -31z"/>
<path d="M5110 4751 c0 -5 11 -11 23 -15 24 -6 24 -7 24 -161 0 -155 0 -155
-23 -161 -47 -12 -23 -24 46 -24 40 0 70 4 70 10 0 6 -6 10 -14 10 -24 0 -27
15 -27 142 0 184 -1 176 21 183 41 13 18 25 -50 25 -38 0 -70 -4 -70 -9z"/>
<path d="M5280 4752 c0 -5 9 -12 20 -15 19 -5 20 -14 20 -162 0 -148 -1 -157
-20 -162 -11 -3 -20 -10 -20 -15 0 -6 50 -9 133 -6 127 3 135 4 169 30 89 68
82 273 -10 319 -25 13 -65 17 -162 18 -74 1 -130 -2 -130 -7z m276 -44 c23
-23 28 -37 32 -102 3 -57 0 -87 -13 -121 -22 -58 -54 -75 -140 -75 l-65 0 0
166 0 166 80 -4 c70 -3 83 -6 106 -30z"/>
<path d="M5729 4593 c-48 -123 -72 -171 -88 -178 -37 -17 -23 -25 44 -25 37 0
65 4 65 10 0 6 -11 10 -24 10 -33 0 -37 9 -21 48 l14 32 85 0 84 0 11 -31 c16
-46 14 -49 -19 -49 -16 0 -30 -4 -30 -10 0 -6 33 -10 80 -10 75 0 103 11 62
24 -13 5 -38 57 -84 174 -57 147 -68 167 -89 170 -22 2 -29 -10 -90 -165z m99
35 c13 -35 27 -71 33 -80 17 -33 10 -38 -62 -38 -39 0 -69 4 -67 8 2 4 16 45
33 90 16 45 32 82 35 82 3 0 15 -28 28 -62z"/>
<path d="M5969 4745 c-5 -61 1 -136 10 -131 5 3 12 26 15 51 9 54 34 75 91 75
l40 0 -1 -153 c0 -155 -4 -177 -30 -177 -8 0 -14 -4 -14 -10 0 -6 30 -10 70
-10 72 0 87 8 48 25 -22 10 -23 14 -23 165 l0 155 42 3 c52 4 78 -21 88 -84 9
-66 25 -43 25 37 l0 69 -180 0 c-153 0 -180 -2 -181 -15z"/>
<path d="M6457 4746 c-20 -8 -44 -20 -53 -27 -49 -40 -70 -170 -39 -245 9 -23
30 -49 52 -64 31 -21 47 -25 112 -25 118 1 174 47 187 155 11 96 -24 177 -90
204 -42 17 -123 18 -169 2z m167 -35 c30 -28 45 -85 42 -159 -5 -106 -49 -152
-143 -148 -88 3 -121 52 -118 177 1 87 18 122 68 145 45 20 122 13 151 -15z"/>
<path d="M7061 4742 c-5 -10 -28 -65 -51 -123 -71 -181 -81 -201 -102 -207
-40 -10 -14 -22 47 -22 37 0 65 4 65 10 0 6 -11 10 -24 10 -33 0 -37 9 -21 48
l14 32 85 0 84 0 11 -31 c16 -46 14 -49 -19 -49 -16 0 -30 -4 -30 -10 0 -6 33
-10 80 -10 74 0 105 11 62 22 -12 3 -36 52 -75 154 -32 82 -63 159 -68 172
-10 27 -44 29 -58 4z m73 -209 c7 -22 5 -23 -63 -23 -39 0 -71 1 -71 3 0 5 61
160 67 169 5 9 47 -85 67 -149z"/>
<path d="M7460 4751 c0 -5 8 -11 17 -13 12 -2 38 -56 84 -173 61 -154 70 -170
93 -173 15 -2 26 2 26 8 0 7 7 26 15 43 8 18 37 88 63 157 35 89 55 128 70
135 37 17 25 25 -37 25 -61 0 -93 -16 -44 -22 16 -2 28 -7 27 -11 -2 -21 -99
-277 -106 -277 -3 0 -10 10 -13 23 -6 19 -54 146 -86 225 -14 36 -11 42 21 42
17 0 30 5 30 10 0 6 -33 10 -80 10 -44 0 -80 -4 -80 -9z"/>
<path d="M7860 4755 c0 -3 11 -10 25 -15 l25 -10 0 -156 c0 -147 -1 -156 -20
-161 -11 -3 -20 -9 -20 -14 0 -8 310 -14 310 -6 0 1 3 32 6 70 8 77 -5 88 -25
22 -17 -58 -48 -75 -134 -75 l-65 0 1 80 0 81 46 -3 c43 -3 47 -5 58 -38 14
-44 21 -27 26 63 4 68 -5 89 -18 40 -9 -35 -21 -43 -71 -43 l-41 0 0 75 -1 75
78 0 c84 0 102 -10 115 -62 11 -42 25 -23 25 33 l0 49 -160 0 c-88 0 -160 -2
-160 -5z"/>
<path d="M8220 4751 c0 -5 9 -11 20 -14 19 -5 20 -14 20 -162 0 -148 -1 -157
-20 -162 -44 -12 -16 -23 55 -23 72 0 105 15 48 22 -28 3 -28 4 -31 81 l-3 77
59 0 c80 0 92 -12 99 -90 6 -69 19 -90 59 -90 28 0 47 23 42 52 -4 23 -5 22
-16 -4 -17 -41 -32 -34 -33 15 -1 65 -7 91 -28 107 -17 14 -17 16 11 41 50 48
35 121 -30 138 -50 13 -252 23 -252 12z m233 -34 c10 -6 20 -28 23 -48 10 -57
-19 -79 -101 -79 l-65 0 0 70 0 70 63 0 c35 0 71 -6 80 -13z"/>
<path d="M8580 4751 c0 -5 9 -11 20 -14 19 -5 20 -14 20 -161 l0 -156 -27 -13
c-24 -10 -4 -12 131 -15 87 -1 161 -1 163 2 10 10 14 136 5 136 -5 0 -13 -15
-16 -32 -4 -18 -15 -44 -26 -58 -17 -22 -27 -25 -99 -28 l-80 -4 1 81 0 82 46
-3 c42 -3 46 -6 58 -38 15 -45 24 -27 27 62 2 45 0 65 -8 62 -6 -3 -12 -14
-12 -26 -3 -28 -20 -38 -70 -38 l-43 0 2 75 2 75 77 0 c72 0 79 -2 98 -26 11
-15 19 -30 16 -34 -3 -4 2 -13 10 -20 13 -11 15 -5 15 44 l0 56 -155 0 c-85 0
-155 -4 -155 -9z"/>
<path d="M9099 4750 c-2 -14 -5 -22 -14 -45 -5 -11 -32 -78 -61 -150 -36 -89
-59 -133 -73 -140 -37 -17 -23 -25 44 -25 37 0 65 4 65 10 0 6 -10 10 -23 10
-33 0 -36 6 -24 46 l10 34 88 0 87 0 11 -31 c16 -46 14 -49 -19 -49 -16 0 -30
-4 -30 -10 0 -6 33 -10 80 -10 75 0 103 11 62 24 -13 5 -36 52 -76 154 -74
191 -75 192 -103 192 -13 0 -24 -4 -24 -10z m81 -236 c0 -2 -31 -4 -70 -4 -38
0 -70 1 -70 3 0 5 61 160 67 170 4 7 73 -151 73 -169z"/>
<path d="M9340 4756 c0 -4 11 -11 25 -16 l25 -10 0 -156 c0 -147 -1 -156 -20
-161 -11 -3 -20 -10 -20 -15 0 -5 53 -8 124 -7 106 1 129 4 161 23 35 19 64
57 74 96 10 41 2 148 -13 178 -30 58 -54 66 -213 71 -79 2 -143 0 -143 -3z
m286 -48 c24 -23 28 -37 32 -107 4 -67 1 -87 -17 -124 -26 -54 -53 -67 -136
-67 l-64 0 0 166 1 166 79 -4 c70 -3 82 -6 105 -30z"/>
<path d="M9818 4736 c-112 -56 -121 -268 -16 -330 21 -12 56 -20 96 -22 131
-5 200 61 200 192 0 76 -27 130 -82 160 -52 29 -141 30 -198 0z m184 -25 c34
-31 41 -54 41 -146 1 -118 -40 -165 -140 -161 -69 2 -98 29 -114 104 -21 102
2 185 60 217 42 23 120 16 153 -14z"/>
<path d="M10130 4751 c0 -5 9 -13 20 -16 19 -6 20 -15 20 -162 0 -146 -1 -155
-20 -160 -44 -12 -16 -23 57 -23 46 0 73 4 67 9 -5 5 -18 11 -29 13 -18 3 -20
12 -22 81 l-1 77 57 0 c79 0 92 -12 98 -91 5 -68 19 -89 58 -89 12 0 26 5 33
12 14 14 16 62 2 53 -5 -3 -10 -15 -10 -26 0 -10 -7 -19 -15 -19 -13 0 -18 26
-15 95 1 15 -32 65 -43 65 -6 0 3 12 21 26 27 21 32 32 32 66 0 47 -25 75 -74
83 -66 10 -236 15 -236 6z m240 -41 c27 -27 24 -86 -4 -106 -12 -8 -45 -14
-81 -14 l-61 0 -1 70 -1 70 64 0 c51 0 68 -4 84 -20z"/>
</g>
</svg>
